PathFileType  4	(X/Y/Z) C:\Users\antoi\Documents\MyRepositories\mobilecap\ResultsAnalysis
DataRate	CameraRate	NumFrames	NumMarkers	Units	OrigDataRate	OrigDataStartFrame	OrigNumFrames
100.0	100.0	4	51	mm	100.0	28	216
Frame#	Time	r_knee			r_shank_antsup			r_ankle			r_calc			r_5meta			r_toe			L_knee			L_shank_antsup			L_ankle			L_calc			L_5meta			L_toe			r_sh2			r_sh3			r_sh4			L_sh2			L_sh3			r_thigh1			r_thigh2			r_thigh3			r_thigh4			r_thigh5			L_thigh1			L_thigh2			L_thigh3			L_thigh4			r.ASIS			r.PSIS			L.ASIS			L.PSIS			C7			R_Shoulder			L_Shoulder			R_Sternum			L_Sternum			R_humerus			R_elbow_med			R_elbow_lat			R_forearm			R_wrist_radius			R_wrist_ulna			L_humerus			L_elbow_med			L_elbow_lat			L_forearm			L_wrist_radius			L_wrist_ulna			R_HJC			L_HJC			R_HJC_reg			L_HJC_reg			
		X1	Y1	Z1	X2	Y2	Z2	X3	Y3	Z3	X4	Y4	Z4	X5	Y5	Z5	X6	Y6	Z6	X7	Y7	Z7	X8	Y8	Z8	X9	Y9	Z9	X10	Y10	Z10	X11	Y11	Z11	X12	Y12	Z12	X13	Y13	Z13	X14	Y14	Z14	X15	Y15	Z15	X16	Y16	Z16	X17	Y17	Z17	X18	Y18	Z18	X19	Y19	Z19	X20	Y20	Z20	X21	Y21	Z21	X22	Y22	Z22	X23	Y23	Z23	X24	Y24	Z24	X25	Y25	Z25	X26	Y26	Z26	X27	Y27	Z27	X28	Y28	Z28	X29	Y29	Z29	X30	Y30	Z30	X31	Y31	Z31	X32	Y32	Z32	X33	Y33	Z33	X34	Y34	Z34	X35	Y35	Z35	X36	Y36	Z36	X37	Y37	Z37	X38	Y38	Z38	X39	Y39	Z39	X40	Y40	Z40	X41	Y41	Z41	X42	Y42	Z42	X43	Y43	Z43	X44	Y44	Z44	X45	Y45	Z45	X46	Y46	Z46	X47	Y47	Z47	X48	Y48	Z48	X49	Y49	Z49	X50	Y50	Z50	X51	Y51	Z51	

28	0.27000000	-1070.76387	781.96691	-456.51114	-1043.32314	702.92638	-477.02169	-1211.78959	406.36724	-470.10033	-1287.01652	372.15781	-500.58592	-1110.48890	354.62529	-440.71143	-1067.00081	381.00749	-499.55910	-1081.62599	785.16226	-736.51516	-1065.96034	687.36861	-734.92216	-1210.06270	406.35272	-713.19032	-1278.21650	371.23426	-675.63194	-1104.13514	353.83803	-753.47163	-1065.26639	376.60096	-697.13732	-1098.25321	604.54485	-451.50254	-1109.62692	740.80605	-440.80588	-1161.58902	640.59643	-434.11277	-1147.59806	720.89327	-747.13307	-1181.48466	602.98572	-754.28055	-1073.80960	1100.91249	-429.45483	-1054.00041	989.53646	-436.94723	-1105.26875	955.52263	-409.52777	-1184.53524	1079.49079	-413.94012	-1159.37473	964.19403	-421.73978	-1086.14165	1053.17733	-793.15051	-1057.15228	921.45387	-762.48048	-1198.26011	1030.66833	-766.63378	-1162.30496	896.46653	-750.42645	-1063.97185	1230.48103	-470.75462	-1227.31848	1331.22752	-555.43195	-1050.95411	1219.86882	-718.25751	-1225.71800	1337.57714	-657.64393	-1045.16247	1708.35109	-606.92070	-961.97754	1633.06987	-429.58687	-967.61365	1653.89068	-781.36839	-926.17959	1625.16339	-592.07145	-918.72463	1627.78614	-620.66975	-991.52241	1496.48164	-372.38244	-1108.22316	1312.07452	-417.26616	-1078.22294	1314.60386	-351.25532	-1011.66031	1189.48148	-360.06619	-981.18235	1058.95614	-379.72947	-1003.42416	1049.45724	-353.92167	-976.37339	1532.45945	-839.00937	-1089.95288	1319.94555	-789.76395	-1046.89052	1328.37911	-857.33058	-994.88921	1226.57438	-833.71511	-976.37948	1072.28988	-823.22818	-993.94959	1067.63558	-849.12594	-1163.16331	1181.90508	-497.48623	-1152.82017	1179.75426	-703.68626	-1152.02693	1175.15884	-509.74749	-1149.46857	1185.30943	-673.14048	
29	0.28000000	-1067.38751	780.80119	-456.37860	-1040.31536	701.58083	-477.28550	-1211.58578	406.48543	-470.17092	-1287.10611	372.19559	-500.67246	-1110.41820	354.59817	-440.76820	-1066.91034	380.75455	-499.67436	-1078.53903	784.12249	-736.44096	-1063.21211	686.21671	-734.89106	-1209.93052	406.35078	-713.17732	-1278.19011	371.33625	-675.77320	-1104.10657	353.77149	-753.78967	-1065.25098	376.39002	-697.40869	-1096.13638	603.64891	-451.59065	-1106.44781	740.43696	-440.74237	-1159.12248	640.34179	-434.10527	-1144.56107	720.52427	-746.98168	-1179.48255	602.79048	-754.12967	-1072.45971	1099.44777	-429.07243	-1051.89352	988.34477	-436.53045	-1103.08722	953.91160	-409.33988	-1183.17119	1077.41464	-413.71765	-1157.24116	962.30444	-422.09346	-1084.23558	1051.97285	-793.05335	-1054.59104	920.38377	-762.40509	-1196.30339	1029.03823	-766.45289	-1159.70964	895.00915	-750.01334	-1063.35991	1228.40249	-470.07754	-1225.12642	1330.11932	-554.83676	-1049.31632	1217.82401	-717.56795	-1223.32301	1336.78458	-657.06676	-1038.23674	1705.23345	-605.84829	-955.74241	1628.96912	-428.38539	-960.48350	1649.97579	-780.11149	-920.05296	1621.03945	-590.74946	-912.27448	1623.58189	-619.18284	-986.33313	1492.44120	-371.50278	-1104.75793	1308.65604	-416.57354	-1073.91022	1310.85107	-351.22345	-1007.19154	1185.91799	-359.80099	-976.42623	1055.67345	-379.46427	-998.87807	1045.90345	-354.10903	-969.87255	1528.66614	-837.82502	-1085.02685	1317.01190	-789.98958	-1041.49403	1325.02193	-856.65304	-990.00465	1223.13935	-832.93547	-971.89160	1069.01104	-822.37985	-989.17176	1064.54160	-848.93281	-1162.51217	1180.39881	-497.07473	-1151.55727	1178.49425	-703.24544	-1151.30743	1173.42922	-509.35558	-1148.42531	1184.08154	-672.73916	
30	0.29000000	-1063.83776	779.38299	-456.70217	-1037.18365	700.18951	-477.49629	-1211.31723	406.50563	-470.28781	-1287.11507	372.27036	-500.70663	-1110.35251	354.58620	-440.78271	-1066.80675	380.44620	-499.81237	-1075.01401	782.92659	-736.27373	-1060.05220	685.00053	-734.76869	-1209.72798	406.44424	-713.24958	-1278.15901	371.46708	-675.87504	-1104.07759	353.69843	-754.02124	-1065.25305	376.21134	-697.58592	-1093.71493	602.69858	-451.98972	-1102.46266	738.74392	-440.79602	-1156.57196	639.90614	-433.89303	-1141.19185	720.13418	-746.81751	-1177.18714	602.80617	-754.19250	-1071.15659	1097.76359	-428.50984	-1049.81024	986.96005	-435.97280	-1100.95244	952.49803	-408.61345	-1181.81161	1075.44358	-413.41945	-1155.03734	960.41839	-422.49928	-1082.25061	1050.67873	-792.98821	-1051.75567	919.27861	-762.49163	-1194.16685	1027.09762	-766.00664	-1156.77629	893.41506	-749.67448	-1062.48470	1225.86438	-469.46685	-1222.81468	1328.80413	-554.28769	-1047.89118	1215.47292	-716.73706	-1220.89229	1335.80906	-656.41164	-1031.23596	1701.86882	-604.69023	-949.40290	1624.68093	-427.10692	-953.17579	1645.89493	-778.89298	-913.89654	1616.73341	-589.41223	-905.68111	1619.26198	-617.61190	-980.97976	1488.24693	-370.68895	-1098.83519	1304.73520	-416.81848	-1069.26185	1306.93458	-351.06228	-1002.37708	1182.07935	-359.65183	-971.23178	1052.16458	-379.33793	-993.96807	1042.04242	-354.50416	-963.15443	1524.52608	-836.46140	-1080.06639	1314.11930	-791.09287	-1035.83394	1321.48574	-856.20478	-984.88887	1219.50671	-832.11511	-967.00231	1065.54176	-821.52984	-984.10248	1061.23648	-848.67729	-1161.81407	1178.62903	-496.62181	-1150.43152	1176.97004	-702.77227	-1150.50338	1171.44238	-508.93444	-1147.43117	1182.63729	-672.14799	
31	0.30000000	-1060.19249	777.94195	-457.00930	-1033.96093	698.72592	-477.67973	-1210.93889	406.61564	-470.34128	-1286.93816	372.47491	-500.68841	-1110.28251	354.58551	-440.78934	-1066.69046	380.16835	-499.94304	-1070.90003	781.62633	-736.21485	-1056.57951	683.47813	-734.51503	-1209.41963	406.59354	-713.34634	-1278.12104	371.55246	-675.83527	-1104.01744	353.58211	-754.15480	-1065.20847	375.99612	-697.64360	-1091.22968	601.70521	-452.29398	-1098.38987	737.12208	-440.83060	-1153.78007	639.39354	-433.66891	-1137.34214	719.55435	-746.73522	-1174.61582	602.70119	-754.21472	-1069.95421	1096.08250	-427.67054	-1047.77389	985.43575	-435.44682	-1098.83958	951.16693	-407.61332	-1180.42683	1073.31090	-413.17977	-1152.83200	958.40875	-422.27019	-1080.16834	1049.18505	-792.79740	-1048.57922	918.11085	-762.57687	-1191.82278	1024.84781	-765.35234	-1153.40466	891.42372	-749.25235	-1061.15697	1222.87033	-468.83231	-1220.35712	1327.34701	-553.61993	-1047.44674	1212.39743	-716.09573	-1218.30325	1334.59828	-655.57465	-1024.31632	1698.22405	-603.38142	-942.99356	1620.16911	-425.76240	-945.76931	1641.54990	-777.40330	-907.69630	1612.25698	-588.04846	-899.07785	1614.84980	-615.99210	-975.47946	1483.87026	-369.75899	-1091.63023	1300.53661	-417.63726	-1064.32907	1302.68003	-350.80695	-997.20657	1177.92374	-359.46957	-965.55623	1048.43406	-379.30219	-988.56229	1037.98563	-354.94170	-956.20909	1520.17444	-835.03767	-1074.71368	1310.60302	-791.46211	-1029.93662	1317.79380	-855.97631	-979.45507	1215.66231	-831.36342	-961.71707	1061.84867	-820.97747	-978.84428	1057.51001	-848.05841	-1161.07868	1176.72278	-495.88908	-1150.06755	1174.94312	-702.05690	-1150.01563	1168.98199	-508.51365	-1146.72871	1180.58579	-671.66137	
